<?xml version="1.0" encoding="utf-8"?>
<!-- Generator: Adobe Illustrator 22.0.1, SVG Export Plug-In . SVG Version: 6.00 Build 0)  -->
<svg version="1.1" id="Layer_1" xmlns="http://www.w3.org/2000/svg" xmlns:xlink="http://www.w3.org/1999/xlink" x="0px" y="0px"
	 viewBox="0 0 408.3 414.9" style="enable-background:new 0 0 408.3 414.9;" xml:space="preserve">
<style type="text/css">
	.st0{fill:#333333;}
	.st1{fill:#808080;}
	.st2{fill:#262626;}
	.st3{opacity:0.26;}
	.st4{fill:#0D0D0D;}
	.st5{fill:#FFFFFF;}
	.st6{fill:#F9C19D;}
	.st7{opacity:0.25;}
</style>
<g>
	<g>
		<path class="st0" d="M345.5,255.9c16.3,1.3,31.9,11,39.7,25.4c7.8,14.4,7.5,33-1.5,46.8c-8.9,13.7-26.2,21.7-42.4,18.9
			c-2.2-0.4-4.5-1-6.2-2.4c-2.7-2.2-3.5-5.9-4.2-9.3c-2.6-13.1-5.3-26.2-7.9-39.3c-1.8-8.9-3.6-18.3-0.8-26.9
			c2.8-8.6,12-15.9,20.7-13.4"/>
	</g>
	<g>
		<path class="st0" d="M62.7,255.9c-16.3,1.3-31.9,11-39.7,25.4c-7.8,14.4-7.5,33,1.5,46.8s26.2,21.7,42.4,18.9
			c2.2-0.4,4.5-1,6.2-2.4c2.7-2.2,3.5-5.9,4.2-9.3c2.6-13.1,5.3-26.2,7.9-39.3c1.8-8.9,3.6-18.3,0.8-26.9s-12-15.9-20.7-13.4"/>
	</g>
	<g>
		<path class="st0" d="M332.9,263.8c0,63.5-23.9,114.9-128.8,114.9c-106.3,0-128.8-51.4-128.8-114.9S161.3,94.7,204.1,94.7
			C242.7,94.7,332.9,200.4,332.9,263.8z"/>
	</g>
	<g>
		<ellipse class="st1" cx="204.1" cy="284.8" rx="75.9" ry="73.3"/>
	</g>
	<g>
		<path class="st2" d="M135.7,367.9l-12.5-5l7.5-139.7C130.8,223.2,152.8,332.9,135.7,367.9z"/>
	</g>
	<g>
		<path class="st2" d="M267.8,370l14.8-3.4l-4.2-144.3C278.4,222.2,250.8,335.1,267.8,370z"/>
	</g>
	<g>
		<g>
			<path class="st0" d="M134.1,159.9c-21,1.3-44.8,4.7-56.7,22.1c-8,11.7-8.2,26.9-9.3,41c-3.3,43.7-17.7,86.5-41.3,123.3
				c-7.2,11.2-15.5,25-9.2,36.8c5.2,9.7,17.7,12.3,28.6,13.8c21,2.9,44.2,5.4,61.5-6.8c11.1-7.8,17.3-20,21.1-33.2
				c2.1-7.3,3.4-14.9,4.3-22.3c4.7-38.4,3.1-77.6-4.8-115.5"/>
		</g>
		<g>
			<path class="st0" d="M274.2,159.9c21,1.3,44.8,4.7,56.7,22.1c8,11.7,8.2,26.9,9.3,41c3.3,43.7,17.7,86.5,41.3,123.3
				c7.2,11.2,15.5,25,9.2,36.8c-5.2,9.7-17.7,12.3-28.6,13.8c-21,2.9-44.2,5.4-61.5-6.8c-17.1-12.1-22.8-34.7-25.4-55.5
				c-4.7-38.4-3.1-77.6,4.8-115.5"/>
		</g>
	</g>
	<g class="st3">
		<g>
			<path class="st4" d="M204.1,94.7c-20.4,0-50.6,24-76.7,56.1c0.3,0.1,0.6,0.2,0.9,0.3c-1.7,2.6-4.1,5.2-7.1,7.6
				c-0.6,0.9-1.3,1.7-1.9,2.6c-0.8,0.1-1.6,0.2-2.4,0.3c-0.6,0.4-1.3,0.7-1.9,1.1c0,0,4.7,4.5,12.2,3.1c0,0,1.6,1.9-2.8,6.9
				c0,0,4.8,3.5,9.6,1.9c2.8,34.8,32.1,62.4,67.6,62.4h5.2c35.5,0,64.8-27.6,67.6-62.4c4.8,1.5,9.6-2,9.6-2c-4.5-5-2.8-6.9-2.8-6.9
				c7.5,1.4,12.2-3.1,12.2-3.1c-0.7-0.3-1.3-0.7-1.9-1.1c-1.3-0.2-2.7-0.4-4-0.6C259.1,124,224.5,94.7,204.1,94.7z"/>
		</g>
	</g>
	<g>
		<g>
			<path class="st5" d="M231,275.3c1.4,0.5,2.8,0.9,4.2,1.4c3.8,1.4,7.5,3.2,10.6,5.9c1.8,1.6,3.3,3.5,3.9,5.9
				c0.9,3.5-0.3,6.4-2.6,8.9c-3.2,3.5-7.3,5.5-11.6,7.1c-1.4,0.6-2.9,1-4.3,1.5c0.4,2.8,0.9,5.6,1.3,8.4c0.4,3.2,0.3,6.4-0.7,9.5
				c-1.7,5.9-6.5,8.6-12.4,7c-4.6-1.2-8.4-4-12-7c-0.9-0.8-1.8-1.6-2.8-2.5c-1.4,1.2-2.8,2.5-4.3,3.7c-3,2.4-6.2,4.5-9.9,5.6
				c-6.7,2.1-12-1-13.4-7.9c-1.1-5.1-0.4-10.1,0.7-15.1c0.1-0.5,0.2-1.1,0.4-1.7c-1.9-0.7-3.9-1.3-5.7-2.1c-3.5-1.4-6.8-3.1-9.5-5.7
				c-5.1-4.9-5-10.8,0.3-15.6c3.8-3.4,8.4-5.3,13.1-6.8c0.6-0.2,1.1-0.4,1.6-0.5c-0.4-2.8-0.9-5.6-1.3-8.4c-0.4-3.1-0.3-6.2,0.6-9.3
				c1.8-6.3,6.6-9,12.9-7.1c4.9,1.5,8.9,4.5,12.6,7.8c0.6,0.5,1.1,1.1,1.8,1.7c1.2-1,2.3-2.1,3.5-3.1c3.3-2.7,6.7-5.1,10.8-6.3
				c6.7-2,11.8,1.1,13.3,7.9c1.1,5.1,0.4,10.1-0.6,15.1C231.3,274.1,231.1,274.7,231,275.3z M204.5,305.2c2.4,0,4.8,0.1,7.3,0
				c0.5,0,1.3-0.4,1.6-0.9c2.5-4.3,5-8.6,7.5-12.9c0.2-0.4,0.2-1,0-1.4c-2.5-4.4-5-8.8-7.6-13.1c-0.2-0.3-0.7-0.6-1.1-0.6
				c-5.1,0-10.1,0-15.2,0c-0.4,0-1,0.4-1.2,0.8c-2.5,4.3-5,8.6-7.4,12.9c-0.2,0.4-0.2,1.2,0,1.6c2.4,4.3,4.8,8.5,7.3,12.7
				c0.3,0.5,1.1,0.9,1.6,1C199.6,305.3,202.1,305.2,204.5,305.2z M201.6,318.6c-2.4-3-4.6-5.9-6.9-8.7c-0.4-0.5-1.2-1-1.9-1.1
				c-3.3-0.6-6.7-1-10-1.6c-0.8-0.1-1.2,0-1.3,0.9c-0.4,2.6-1.1,5.1-1.1,7.7c-0.1,2.5,0.2,5.1,0.8,7.6c0.9,3.3,3.4,4.7,6.8,3.9
				C193.6,326,197.6,322.3,201.6,318.6z M207.4,318.6c0.8,0.7,1.5,1.4,2.3,2.1c3.1,2.7,6.3,5.1,10.3,6.3c4.2,1.2,7.1-0.3,8.1-4.5
				c1.3-5.2,0.3-10.3-0.9-15.4c-0.3,0-0.5-0.1-0.6,0c-3.6,0.6-7.3,1.1-10.9,1.7c-0.4,0.1-0.8,0.3-1.1,0.6
				C212.2,312.4,209.8,315.5,207.4,318.6z M230,302.2c4.6-1.4,9-3,12.7-6c4.4-3.6,4.5-7.4,0.1-11c-3.5-2.9-7.8-4.5-12.1-5.8
				c-0.6-0.2-0.9,0-1.1,0.6c-0.8,2.3-1.4,4.7-2.6,6.8c-1.5,2.7-1.4,5.1,0,7.8C228.3,297,229,299.6,230,302.2z M178.8,302.2
				c1.5-3.8,3-7.4,4.5-11.1c0.1-0.2,0-0.6-0.1-0.9c-1.3-3.4-2.6-6.9-4-10.3c-0.1-0.3-0.7-0.6-0.9-0.5c-4.4,1.3-8.6,2.9-12.2,5.8
				c-4.4,3.6-4.4,7.4,0.1,11C170,299.2,174.4,300.8,178.8,302.2z M181.7,274.2c4-0.6,7.9-1.1,11.7-1.7c0.3,0,0.6-0.2,0.8-0.4
				c2.4-3.1,4.9-6.2,7.4-9.4c-0.9-0.8-1.9-1.8-3-2.7c-2.9-2.4-6-4.7-9.8-5.7c-4.3-1.2-7,0.5-8,4.8
				C179.6,264.3,180.7,269.3,181.7,274.2z M207.3,262.8c1.8,2.2,3.8,4.3,5.3,6.6c1.5,2.3,3.3,3.8,6.1,3.5c0.1,0,0.3,0,0.4,0.1
				c2.7,0.4,5.3,0.9,8.1,1.3c0.2-0.9,0.4-1.7,0.6-2.6c0.8-4.1,1.4-8.3,0.4-12.5c-1.1-4.5-3.8-6.2-8.3-4.9
				C214.9,255.9,211.1,259.3,207.3,262.8z M182.7,278.2c1,2.7,1.9,5.2,2.9,7.9c1.9-3.2,3.5-6.2,5.4-9.3
				C188.2,277.2,185.6,277.7,182.7,278.2z M226.2,278.1c-2.9-0.5-5.5-0.9-8.3-1.4c1.8,3.2,3.5,6.1,5.4,9.3
				C224.3,283.3,225.2,280.9,226.2,278.1z M182.8,303.3c2.8,0.5,5.4,0.9,8.3,1.4c-1.9-3.2-3.5-6.1-5.4-9.3
				C184.6,298.1,183.7,300.6,182.8,303.3z M223.3,295.4c-1.9,3.2-3.5,6.1-5.4,9.3c2.9-0.5,5.5-1,8.3-1.5
				C225.2,300.6,224.3,298.1,223.3,295.4z M204.5,265.7c-1.8,2.2-3.5,4.2-5.3,6.3c3.6,0,6.9,0,10.6,0
				C207.9,269.8,206.3,267.8,204.5,265.7z M204.5,315.8c1.9-2.2,3.5-4.2,5.3-6.4c-3.7,0-7,0-10.7,0
				C201,311.5,202.6,313.6,204.5,315.8z"/>
		</g>
		<g>
			<path class="st5" d="M212.6,290.7c0,4.6-3.6,8.1-8.1,8.2c-4.5,0-8.1-3.6-8.2-8.1c0-4.5,3.6-8.2,8.1-8.2
				C208.9,282.5,212.6,286.2,212.6,290.7z"/>
		</g>
	</g>
	<g>
		<path class="st2" d="M32.5,337.1c0,0-3.8-0.6-8-9.1s38.3-72.2,38.3-72.2L32.5,337.1z"/>
	</g>
	<g>
		<path class="st2" d="M374.4,337.1c0,0,3.8-0.6,8-9.1c4.2-8.5-38.3-72.2-38.3-72.2L374.4,337.1z"/>
	</g>
	<g>
		<g>
			<ellipse class="st1" cx="135.1" cy="124.6" rx="13.9" ry="16.7"/>
		</g>
		<g>
			<ellipse class="st1" cx="272.4" cy="124.6" rx="13.9" ry="16.7"/>
		</g>
		<g>
			<path class="st0" d="M206.6,223h-5c-35.7,0-64.9-29.2-64.9-64.9V81.2c0-35.7,29.2-57.6,64.9-57.6h5c35.7,0,64.9,21.9,64.9,57.6
				v76.9C271.6,193.8,242.3,223,206.6,223z"/>
		</g>
		<g>
			<path class="st6" d="M247.7,120.3c0,14.7-19.5,26.6-43.5,26.6s-43.5-11.9-43.5-26.6s19.5-12.7,43.5-12.7S247.7,105.6,247.7,120.3
				z"/>
		</g>
		<g>
			<path class="st1" d="M247.7,120.3c0,14.7-19.5,26.6-43.5,26.6s-43.5-11.9-43.5-26.6s19.5-12.7,43.5-12.7S247.7,105.6,247.7,120.3
				z"/>
		</g>
		<g>
			<path class="st1" d="M247.7,180.8c0-14.7-19.5-39.6-43.5-39.6s-43.5,24.9-43.5,39.6c0,14.7,19.5,29.8,43.6,29.8
				S247.7,195.5,247.7,180.8z"/>
		</g>
		<g>
			<g>
				<path class="st0" d="M202.1,156.8c0.6-1.1,0.2-3.6-1.5-4.6s-4.1,0-4.7,1.1c-0.6,1.1,0.2,2.9,1.9,3.9
					C199.5,158.2,201.5,157.9,202.1,156.8z"/>
			</g>
			<g>
				<path class="st0" d="M206.2,156.8c-0.6-1.1-0.2-3.6,1.5-4.6s4.1,0,4.7,1.1c0.6,1.1-0.2,2.9-1.9,3.9
					C208.8,158.2,206.8,157.9,206.2,156.8z"/>
			</g>
		</g>
		<g>
			<ellipse class="st0" cx="189" cy="122" rx="8.6" ry="6.8"/>
		</g>
		<g>
			<ellipse class="st0" cx="219.8" cy="122" rx="8.6" ry="6.8"/>
		</g>
		<g class="st7">
			<path class="st4" d="M204.2,107.6c-24,0-43.5-1.9-43.5,12.7c0,1.1,0.1,2.2,0.3,3.2c0.1,0,0.3,0,0.4,0h85.5c0.2,0,0.3,0,0.4,0
				c0.2-1.1,0.3-2.1,0.3-3.2C247.7,105.6,228.2,107.6,204.2,107.6z"/>
		</g>
		<g>
			<path class="st1" d="M247.7,120.3h-87.1c-5.1,0-9.2-4.1-9.2-9.2v0c0-5.1,4.1-9.2,9.2-9.2h87.1c5.1,0,9.2,4.1,9.2,9.2v0
				C256.9,116.2,252.7,120.3,247.7,120.3z"/>
		</g>
		<g>
			<path class="st0" d="M193.4,24c-11.1,1.5-22.8-0.6-31-8.3c-0.5,4.2,0.8,8.6,3.6,11.8c-5.8-0.4-11.5-2.1-16.6-4.9
				c-1.4,6,1.4,12.4,5.8,16.8c4.4,4.4,10.1,7.1,15.7,9.7"/>
		</g>
		<g>
			<path class="st0" d="M136.7,127.2c0,0-0.8,15.8-17.9,24.6c0,0,4.5,4.3,11.7,3c0,0,1.6,1.8-2.7,6.6c0,0,7.8,5.7,13.2-1
				C146.4,153.6,136.7,127.2,136.7,127.2z"/>
		</g>
		<g>
			<path class="st0" d="M271.5,127.2c0,0,0.8,15.8,17.9,24.6c0,0-4.5,4.3-11.7,3c0,0-1.6,1.8,2.7,6.6c0,0-7.8,5.7-13.2-1
				C261.8,153.6,271.5,127.2,271.5,127.2z"/>
		</g>
		<g>
			<g>
				<g>
					<path class="st5" d="M165.2,182.2c0,0,6.9-12.6,10.1-10.8c3.2,1.8,1.1,18.7,1.1,18.7L165.2,182.2z"/>
				</g>
				<g>
					<path class="st5" d="M243.1,182.2c0,0-6.9-12.6-10.1-10.8c-3.2,1.8-1.1,18.7-1.1,18.7L243.1,182.2z"/>
				</g>
			</g>
			<g>
				<path class="st0" d="M204.1,198.3c-28,0-50.8-16.5-50.8-36.9c0-1.6,1.3-2.9,2.9-2.9s2.9,1.3,2.9,2.9c0,17.1,20.2,31.1,44.9,31.1
					s44.9-13.9,44.9-31.1c0-1.6,1.3-2.9,2.9-2.9s2.9,1.3,2.9,2.9C254.9,181.8,232.1,198.3,204.1,198.3z"/>
			</g>
		</g>
	</g>
</g>
</svg>
