<svg id="Layer_1" xmlns="http://www.w3.org/2000/svg" viewBox="0 0 408.3 414.9"><style>.st0{fill:#333}.st1{fill:gray}.st2{fill:#262626}.st4{fill:#0d0d0d}.st5{fill:#fff}</style><path class="st0" d="M345.5 255.9c16.3 1.3 31.9 11 39.7 25.4 7.8 14.4 7.5 33-1.5 46.8-8.9 13.7-26.2 21.7-42.4 18.9-2.2-.4-4.5-1-6.2-2.4-2.7-2.2-3.5-5.9-4.2-9.3-2.6-13.1-5.3-26.2-7.9-39.3-1.8-8.9-3.6-18.3-.8-26.9 2.8-8.6 12-15.9 20.7-13.4m-280.2.2c-16.3 1.3-31.9 11-39.7 25.4-7.8 14.4-7.5 33 1.5 46.8s26.2 21.7 42.4 18.9c2.2-.4 4.5-1 6.2-2.4 2.7-2.2 3.5-5.9 4.2-9.3 2.6-13.1 5.3-26.2 7.9-39.3 1.8-8.9 3.6-18.3.8-26.9s-12-15.9-20.7-13.4"/><path class="st0" d="M332.9 263.8c0 63.5-23.9 114.9-128.8 114.9-106.3 0-128.8-51.4-128.8-114.9s86-169.1 128.8-169.1c38.6 0 128.8 105.7 128.8 169.1z"/><ellipse class="st1" cx="204.1" cy="284.8" rx="75.9" ry="73.3"/><path class="st2" d="M135.7 367.9l-12.5-5 7.5-139.7c.1 0 22.1 109.7 5 144.7zm132.1 2.1l14.8-3.4-4.2-144.3c0-.1-27.6 112.8-10.6 147.7z"/><path class="st0" d="M134.1 159.9c-21 1.3-44.8 4.7-56.7 22.1-8 11.7-8.2 26.9-9.3 41-3.3 43.7-17.7 86.5-41.3 123.3-7.2 11.2-15.5 25-9.2 36.8 5.2 9.7 17.7 12.3 28.6 13.8 21 2.9 44.2 5.4 61.5-6.8 11.1-7.8 17.3-20 21.1-33.2 2.1-7.3 3.4-14.9 4.3-22.3 4.7-38.4 3.1-77.6-4.8-115.5m145.9-59.2c21 1.3 44.8 4.7 56.7 22.1 8 11.7 8.2 26.9 9.3 41 3.3 43.7 17.7 86.5 41.3 123.3 7.2 11.2 15.5 25 9.2 36.8-5.2 9.7-17.7 12.3-28.6 13.8-21 2.9-44.2 5.4-61.5-6.8-17.1-12.1-22.8-34.7-25.4-55.5-4.7-38.4-3.1-77.6 4.8-115.5"/><path class="st4" d="M204.1 94.7c-20.4 0-50.6 24-76.7 56.1l.9.3c-1.7 2.6-4.1 5.2-7.1 7.6-.6.9-1.3 1.7-1.9 2.6l-2.4.3c-.6.4-1.3.7-1.9 1.1 0 0 4.7 4.5 12.2 3.1 0 0 1.6 1.9-2.8 6.9 0 0 4.8 3.5 9.6 1.9 2.8 34.8 32.1 62.4 67.6 62.4h5.2c35.5 0 64.8-27.6 67.6-62.4 4.8 1.5 9.6-2 9.6-2-4.5-5-2.8-6.9-2.8-6.9 7.5 1.4 12.2-3.1 12.2-3.1-.7-.3-1.3-.7-1.9-1.1-1.3-.2-2.7-.4-4-.6-28.4-36.9-63-66.2-83.4-66.2z" opacity=".26"/><path class="st5" d="M231 275.3c1.4.5 2.8.9 4.2 1.4 3.8 1.4 7.5 3.2 10.6 5.9 1.8 1.6 3.3 3.5 3.9 5.9.9 3.5-.3 6.4-2.6 8.9-3.2 3.5-7.3 5.5-11.6 7.1-1.4.6-2.9 1-4.3 1.5.4 2.8.9 5.6 1.3 8.4.4 3.2.3 6.4-.7 9.5-1.7 5.9-6.5 8.6-12.4 7-4.6-1.2-8.4-4-12-7-.9-.8-1.8-1.6-2.8-2.5-1.4 1.2-2.8 2.5-4.3 3.7-3 2.4-6.2 4.5-9.9 5.6-6.7 2.1-12-1-13.4-7.9-1.1-5.1-.4-10.1.7-15.1.1-.5.2-1.1.4-1.7-1.9-.7-3.9-1.3-5.7-2.1-3.5-1.4-6.8-3.1-9.5-5.7-5.1-4.9-5-10.8.3-15.6 3.8-3.4 8.4-5.3 13.1-6.8.6-.2 1.1-.4 1.6-.5-.4-2.8-.9-5.6-1.3-8.4-.4-3.1-.3-6.2.6-9.3 1.8-6.3 6.6-9 12.9-7.1 4.9 1.5 8.9 4.5 12.6 7.8.6.5 1.1 1.1 1.8 1.7 1.2-1 2.3-2.1 3.5-3.1 3.3-2.7 6.7-5.1 10.8-6.3 6.7-2 11.8 1.1 13.3 7.9 1.1 5.1.4 10.1-.6 15.1-.2.5-.4 1.1-.5 1.7zm-26.5 29.9c2.4 0 4.8.1 7.3 0 .5 0 1.3-.4 1.6-.9l7.5-12.9c.2-.4.2-1 0-1.4-2.5-4.4-5-8.8-7.6-13.1-.2-.3-.7-.6-1.1-.6H197c-.4 0-1 .4-1.2.8-2.5 4.3-5 8.6-7.4 12.9-.2.4-.2 1.2 0 1.6 2.4 4.3 4.8 8.5 7.3 12.7.3.5 1.1.9 1.6 1 2.3 0 4.8-.1 7.2-.1zm-2.9 13.4c-2.4-3-4.6-5.9-6.9-8.7-.4-.5-1.2-1-1.9-1.1-3.3-.6-6.7-1-10-1.6-.8-.1-1.2 0-1.3.9-.4 2.6-1.1 5.1-1.1 7.7-.1 2.5.2 5.1.8 7.6.9 3.3 3.4 4.7 6.8 3.9 5.6-1.3 9.6-5 13.6-8.7zm5.8 0c.8.7 1.5 1.4 2.3 2.1 3.1 2.7 6.3 5.1 10.3 6.3 4.2 1.2 7.1-.3 8.1-4.5 1.3-5.2.3-10.3-.9-15.4-.3 0-.5-.1-.6 0-3.6.6-7.3 1.1-10.9 1.7-.4.1-.8.3-1.1.6-2.4 3-4.8 6.1-7.2 9.2zm22.6-16.4c4.6-1.4 9-3 12.7-6 4.4-3.6 4.5-7.4.1-11-3.5-2.9-7.8-4.5-12.1-5.8-.6-.2-.9 0-1.1.6-.8 2.3-1.4 4.7-2.6 6.8-1.5 2.7-1.4 5.1 0 7.8 1.3 2.4 2 5 3 7.6zm-51.2 0c1.5-3.8 3-7.4 4.5-11.1.1-.2 0-.6-.1-.9-1.3-3.4-2.6-6.9-4-10.3-.1-.3-.7-.6-.9-.5-4.4 1.3-8.6 2.9-12.2 5.8-4.4 3.6-4.4 7.4.1 11 3.8 3 8.2 4.6 12.6 6zm2.9-28c4-.6 7.9-1.1 11.7-1.7.3 0 .6-.2.8-.4 2.4-3.1 4.9-6.2 7.4-9.4-.9-.8-1.9-1.8-3-2.7-2.9-2.4-6-4.7-9.8-5.7-4.3-1.2-7 .5-8 4.8-1.2 5.2-.1 10.2.9 15.1zm25.6-11.4c1.8 2.2 3.8 4.3 5.3 6.6s3.3 3.8 6.1 3.5c.1 0 .3 0 .4.1 2.7.4 5.3.9 8.1 1.3.2-.9.4-1.7.6-2.6.8-4.1 1.4-8.3.4-12.5-1.1-4.5-3.8-6.2-8.3-4.9-5 1.6-8.8 5-12.6 8.5zm-24.6 15.4c1 2.7 1.9 5.2 2.9 7.9 1.9-3.2 3.5-6.2 5.4-9.3-2.8.4-5.4.9-8.3 1.4zm43.5-.1c-2.9-.5-5.5-.9-8.3-1.4 1.8 3.2 3.5 6.1 5.4 9.3 1-2.7 1.9-5.1 2.9-7.9zm-43.4 25.2c2.8.5 5.4.9 8.3 1.4-1.9-3.2-3.5-6.1-5.4-9.3-1.1 2.7-2 5.2-2.9 7.9zm40.5-7.9c-1.9 3.2-3.5 6.1-5.4 9.3 2.9-.5 5.5-1 8.3-1.5-1-2.6-1.9-5.1-2.9-7.8zm-18.8-29.7c-1.8 2.2-3.5 4.2-5.3 6.3h10.6c-1.9-2.2-3.5-4.2-5.3-6.3zm0 50.1c1.9-2.2 3.5-4.2 5.3-6.4h-10.7c1.9 2.1 3.5 4.2 5.4 6.4z"/><path class="st5" d="M212.6 290.7c0 4.6-3.6 8.1-8.1 8.2-4.5 0-8.1-3.6-8.2-8.1 0-4.5 3.6-8.2 8.1-8.2 4.5-.1 8.2 3.6 8.2 8.1z"/><path class="st2" d="M32.5 337.1s-3.8-.6-8-9.1 38.3-72.2 38.3-72.2l-30.3 81.3zm341.9 0s3.8-.6 8-9.1-38.3-72.2-38.3-72.2l30.3 81.3z"/><ellipse class="st1" cx="135.1" cy="124.6" rx="13.9" ry="16.7"/><ellipse class="st1" cx="272.4" cy="124.6" rx="13.9" ry="16.7"/><path class="st0" d="M206.6 223h-5c-35.7 0-64.9-29.2-64.9-64.9V81.2c0-35.7 29.2-57.6 64.9-57.6h5c35.7 0 64.9 21.9 64.9 57.6v76.9c.1 35.7-29.2 64.9-64.9 64.9z"/><path d="M247.7 120.3c0 14.7-19.5 26.6-43.5 26.6s-43.5-11.9-43.5-26.6 19.5-12.7 43.5-12.7 43.5-2 43.5 12.7z" fill="#f9c19d"/><path class="st1" d="M247.7 120.3c0 14.7-19.5 26.6-43.5 26.6s-43.5-11.9-43.5-26.6 19.5-12.7 43.5-12.7 43.5-2 43.5 12.7z"/><path class="st1" d="M247.7 180.8c0-14.7-19.5-39.6-43.5-39.6s-43.5 24.9-43.5 39.6c0 14.7 19.5 29.8 43.6 29.8s43.4-15.1 43.4-29.8z"/><path class="st0" d="M202.1 156.8c.6-1.1.2-3.6-1.5-4.6s-4.1 0-4.7 1.1c-.6 1.1.2 2.9 1.9 3.9s3.7.7 4.3-.4zm4.1 0c-.6-1.1-.2-3.6 1.5-4.6s4.1 0 4.7 1.1c.6 1.1-.2 2.9-1.9 3.9s-3.7.7-4.3-.4z"/><ellipse class="st0" cx="189" cy="122" rx="8.6" ry="6.8"/><ellipse class="st0" cx="219.8" cy="122" rx="8.6" ry="6.8"/><path class="st4" d="M204.2 107.6c-24 0-43.5-1.9-43.5 12.7 0 1.1.1 2.2.3 3.2h86.3c.2-1.1.3-2.1.3-3.2.1-14.7-19.4-12.7-43.4-12.7z" opacity=".25"/><path class="st1" d="M247.7 120.3h-87.1c-5.1 0-9.2-4.1-9.2-9.2s4.1-9.2 9.2-9.2h87.1c5.1 0 9.2 4.1 9.2 9.2s-4.2 9.2-9.2 9.2z"/><path class="st0" d="M193.4 24c-11.1 1.5-22.8-.6-31-8.3-.5 4.2.8 8.6 3.6 11.8-5.8-.4-11.5-2.1-16.6-4.9-1.4 6 1.4 12.4 5.8 16.8s10.1 7.1 15.7 9.7m-34.2 78.1s-.8 15.8-17.9 24.6c0 0 4.5 4.3 11.7 3 0 0 1.6 1.8-2.7 6.6 0 0 7.8 5.7 13.2-1 5.4-6.8-4.3-33.2-4.3-33.2zm134.8 0s.8 15.8 17.9 24.6c0 0-4.5 4.3-11.7 3 0 0-1.6 1.8 2.7 6.6 0 0-7.8 5.7-13.2-1-5.4-6.8 4.3-33.2 4.3-33.2z"/><path class="st5" d="M165.2 182.2s6.9-12.6 10.1-10.8c3.2 1.8 1.1 18.7 1.1 18.7l-11.2-7.9zm77.9 0s-6.9-12.6-10.1-10.8c-3.2 1.8-1.1 18.7-1.1 18.7l11.2-7.9z"/><path class="st0" d="M204.1 198.3c-28 0-50.8-16.5-50.8-36.9 0-1.6 1.3-2.9 2.9-2.9s2.9 1.3 2.9 2.9c0 17.1 20.2 31.1 44.9 31.1s44.9-13.9 44.9-31.1c0-1.6 1.3-2.9 2.9-2.9s2.9 1.3 2.9 2.9c.2 20.4-22.6 36.9-50.6 36.9z"/></svg>